<?xml version="1.0" standalone="no"?>
<!DOCTYPE svg PUBLIC "-//W3C//DTD SVG 20010904//EN"
 "http://www.w3.org/TR/2001/REC-SVG-20010904/DTD/svg10.dtd">
<svg version="1.0" xmlns="http://www.w3.org/2000/svg"
 width="459.000000pt" height="174.000000pt" viewBox="0 0 459.000000 174.000000"
 preserveAspectRatio="xMidYMid meet">

<g transform="translate(0.000000,174.000000) scale(0.100000,-0.100000)"
fill="#000000" stroke="none">
<path d="M2920 1311 l-35 -6 -3 -307 -2 -308 55 0 55 0 0 164 c0 97 4 167 10
171 5 3 32 9 60 12 40 5 54 2 70 -12 18 -17 20 -31 20 -177 l0 -158 55 0 55 0
-1 163 c-1 184 -9 221 -59 255 -42 28 -120 30 -173 3 l-37 -19 0 114 c0 126 5
118 -70 105z"/>
<path d="M570 980 l0 -290 124 0 c183 0 266 35 319 133 19 36 22 57 22 157 0
102 -3 121 -24 164 -46 93 -132 126 -326 126 l-115 0 0 -290z m279 172 c56
-41 66 -67 66 -165 0 -75 -4 -99 -20 -127 -28 -46 -70 -69 -143 -76 l-62 -7 0
203 0 203 67 -6 c42 -4 77 -14 92 -25z"/>
<path d="M2593 1218 c-43 -9 -43 -9 -43 -54 0 -37 -3 -44 -19 -44 -38 0 -51
-11 -51 -45 0 -31 3 -34 33 -37 l32 -3 5 -146 c5 -148 9 -163 50 -196 28 -22
87 -25 145 -9 60 18 60 19 44 63 -10 29 -12 30 -54 25 -71 -8 -75 1 -75 144
l0 124 65 0 65 0 0 40 0 40 -65 0 -65 0 0 55 c0 60 2 59 -67 43z"/>
<path d="M1920 1145 c-26 -27 -37 -32 -51 -25 -31 17 -140 11 -186 -9 -42 -20
-58 -40 -74 -94 -11 -38 4 -97 30 -121 19 -17 19 -18 -5 -53 -27 -40 -31 -80
-10 -108 12 -17 12 -22 -5 -44 -28 -35 -26 -111 4 -138 42 -39 70 -47 152 -47
110 0 169 28 197 92 35 79 6 151 -71 172 -20 5 -68 10 -107 10 -76 0 -99 12
-92 47 3 15 12 17 50 15 62 -5 148 21 178 53 18 19 25 40 28 84 3 36 0 61 -7
65 -22 14 -10 34 25 40 19 4 34 10 32 14 -27 55 -43 82 -48 82 -3 0 -21 -16
-40 -35z m-79 -105 c28 -16 27 -84 -3 -104 -52 -37 -128 -9 -128 46 0 44 25
68 72 68 22 0 48 -5 59 -10z m36 -366 c18 -25 16 -41 -7 -64 -26 -26 -134 -29
-162 -3 -21 19 -24 63 -5 82 19 20 156 9 174 -15z"/>
<path d="M1219 1107 c-63 -33 -99 -105 -99 -196 0 -131 41 -199 137 -227 137
-40 250 34 269 177 8 58 -11 148 -39 191 -50 75 -179 102 -268 55z m164 -86
c41 -49 46 -153 11 -222 -24 -48 -96 -55 -134 -14 -26 28 -38 113 -26 181 16
82 100 113 149 55z"/>
<path d="M2137 1112 c-51 -18 -53 -21 -37 -66 8 -24 13 -27 32 -21 13 4 49 10
81 12 68 6 97 -12 97 -59 0 -27 -2 -28 -51 -28 -71 0 -134 -18 -163 -47 -32
-32 -43 -101 -25 -150 34 -88 124 -101 252 -35 4 2 7 -3 7 -12 0 -12 10 -16
40 -16 l40 0 0 173 c0 195 -9 225 -75 253 -46 19 -139 17 -198 -4z m173 -276
c0 -53 -14 -67 -77 -74 -37 -4 -49 -1 -60 13 -38 53 3 105 84 105 l53 0 0 -44z"/>
<path d="M3455 1116 c-72 -33 -105 -101 -105 -214 0 -139 53 -207 177 -227 46
-7 140 9 167 28 14 10 15 17 5 45 -10 28 -14 31 -37 24 -15 -4 -56 -7 -90 -7
-57 0 -66 3 -88 28 -13 15 -24 39 -24 53 l0 24 131 0 131 0 -4 68 c-4 76 -29
135 -72 166 -34 26 -146 33 -191 12z m148 -109 c29 -58 20 -67 -68 -67 l-75 0
0 29 c0 15 10 40 21 55 18 23 28 27 63 24 36 -3 43 -7 59 -41z"/>
<path d="M3956 1105 c-47 -25 -48 -25 -53 -5 -4 16 -14 20 -44 20 l-39 0 0
-215 0 -215 50 0 50 0 0 159 c0 117 3 162 13 168 6 4 41 10 77 13 l65 5 3 48
3 47 -39 0 c-22 0 -59 -11 -86 -25z"/>
</g>
</svg>
